/* XPM */
static char *_f28f31086ce42ddf813108665edb10fRW0FEFsYxKIOZ2sl[] = {
/* columns rows colors chars-per-pixel */
"32 32 218 2 ",
"   c #000004",
".  c #00001A",
"X  c #0F002A",
"o  c #180029",
"O  c #21002D",
"+  c #300739",
"@  c #121658",
"#  c #290447",
"$  c #2C0A5C",
"%  c #13225C",
"&  c #37205F",
"*  c #0D147D",
"=  c #15197E",
"-  c #171669",
";  c #211B60",
":  c #3A1D61",
">  c #192479",
",  c #0E2270",
"<  c #202163",
"1  c #382A69",
"2  c #362676",
"3  c #2B357C",
"4  c #3B397D",
"5  c #3A356D",
"6  c #510048",
"7  c #471656",
"8  c #4C0E51",
"9  c #60194E",
"0  c #582354",
"q  c #4E295C",
"w  c #6C245A",
"e  c #521F66",
"r  c #711B6C",
"t  c #452C66",
"y  c #533874",
"u  c #4E2370",
"i  c #772966",
"p  c #6F2D70",
"a  c #7C487A",
"s  c #6E507A",
"d  c #893876",
"f  c #893573",
"g  c #A93A7C",
"h  c #824578",
"j  c #161984",
"k  c #1E2583",
"l  c #1F2980",
"z  c #222984",
"x  c #2F348E",
"c  c #2C3B95",
"v  c #333B93",
"b  c #343A9B",
"n  c #303791",
"m  c #32308E",
"M  c #583D84",
"N  c #4C3E83",
"B  c #7F3981",
"V  c #6B3E87",
"C  c #3C449C",
"Z  c #3B4698",
"A  c #3B47A3",
"S  c #3E4AA4",
"D  c #3642AA",
"F  c #3B44AC",
"G  c #3E4CAC",
"H  c #3143A2",
"J  c #3E4CB2",
"K  c #3C4EB9",
"L  c #3849B2",
"P  c #3C57BA",
"I  c #324CA6",
"U  c #474A9B",
"Y  c #45529F",
"T  c #574E97",
"R  c #754686",
"E  c #794A98",
"W  c #77569D",
"Q  c #685298",
"!  c #434CA5",
"~  c #414EAC",
"^  c #4C4AA7",
"/  c #5041A0",
"(  c #4451AC",
")  c #4A53AD",
"_  c #4954A4",
"`  c #5C59A4",
"'  c #555DAC",
"]  c #414DB3",
"[  c #474DBB",
"{  c #4552B4",
"}  c #4955B4",
"|  c #4A5AB6",
" . c #4553B9",
".. c #4A57BC",
"X. c #445BBB",
"o. c #4C5BBB",
"O. c #475EB5",
"+. c #525CBC",
"@. c #585AB6",
"#. c #6256A8",
"$. c #625CB4",
"%. c #655CBC",
"&. c #7354AE",
"*. c #4F63BF",
"=. c #4464BA",
"-. c #5261BE",
";. c #6062BC",
":. c #796EBF",
">. c #746FB6",
",. c #364DC1",
"<. c #3F64C6",
"1. c #3C6FD2",
"2. c #465EC5",
"3. c #4D5DC2",
"4. c #515EC4",
"5. c #565DCD",
"6. c #4D61C3",
"7. c #4966CA",
"8. c #5363C4",
"9. c #5965C6",
"0. c #5565CA",
"q. c #5966CA",
"w. c #5669CC",
"e. c #5969CC",
"r. c #586AC5",
"t. c #5270CB",
"y. c #4669D2",
"u. c #5464D1",
"i. c #556BD3",
"p. c #5A6BD2",
"a. c #5C6EDA",
"s. c #5B67D3",
"d. c #5C71D3",
"f. c #5D73DC",
"g. c #5E79D8",
"h. c #5772D9",
"j. c #636CCE",
"k. c #6A66CE",
"l. c #766AC6",
"z. c #6579CB",
"x. c #676DD1",
"c. c #6372D3",
"v. c #6A77DC",
"b. c #7D7ADA",
"n. c #5E6FE4",
"m. c #5A79E6",
"M. c #476EE0",
"N. c #6A7EE4",
"B. c #6678E3",
"V. c #873E88",
"C. c #943586",
"Z. c #844A8B",
"A. c #974482",
"S. c #874994",
"D. c #86559B",
"F. c #9E5895",
"G. c #B9488B",
"H. c #AC4D91",
"J. c #9D639F",
"K. c #8C55AC",
"L. c #B35BA7",
"P. c #8D6BB3",
"I. c #B670AE",
"U. c #D35599",
"Y. c #E3639D",
"T. c #C458AE",
"R. c #E35DAB",
"E. c #CA6DAB",
"W. c #E971B4",
"Q. c #846BCD",
"!. c #8872C6",
"~. c #9B79CC",
"^. c #A977CB",
"/. c #AB6ECB",
"(. c #BA77E0",
"). c #DF79C7",
"_. c #E07EC3",
"`. c #F876C3",
"'. c #6F81DA",
"]. c #5F8AF7",
"[. c #6C82E7",
"{. c #6D84E9",
"}. c #6482EE",
"|. c #7187EC",
" X c #728AEE",
".X c #6684F5",
"XX c #758CF1",
"oX c #798FF4",
"OX c #7386F8",
"+X c #7A93F9",
"@X c #62A0FF",
"#X c #78A5FF",
"$X c #958294",
"%X c #8889BC",
"&X c #E588BE",
"*X c #9A84D9",
"=X c #928AD4",
"-X c #8097FE",
";X c #859CFF",
":X c #919EFF",
">X c #8C86E3",
",X c #8CA2FF",
"<X c #93A3FF",
"1X c #DE82D2",
"2X c #D298C9",
"3X c #FA87CC",
"4X c #F29BD9",
"5X c #CFA8C3",
"6X c #E8A3DA",
"7X c #FDA5DD",
"8X c #FF9FE2",
"9X c #FFB0EC",
"0X c #FFAEF0",
"qX c #FFA6FB",
"wX c #FFB3F4",
"eX c #FFB2FF",
"rX c #FFD8FF",
"tX c #FFEBFF",
/* pixels */
"F G { ] ] J ] J ] 3. .[ G ] L P P  .] J G J  .o. .] J J ] ..3.] ",
"G ~ ~ ~ ~ ] ] F { { L G ] K H C L ,.K ] J J { K J ] J ] ]  . .J ",
"G ] { ~ F ] J J [  .J J K F &./.K.] K J J J  . .] J J J ]  . .] ",
"~ { } ( ~ { ] ] ..o.{ ,.L W 9XqXT.U P  . . .3.o. . . . . ...2.[ ",
"n n n n v b b b b b b H x L.8XE.p 2 D D D D D F F F F F F F F F ",
"z z z l z k k = = j > , - C.R.d 8 $ * j * * * j j * j j j j j m ",
"8.8.6.6.0.4.0.0.w.w.9.u.2.E g 8 # ^ w.3.o.{ { J [ ] J ] F D L K ",
"g.g.m.m.m.}.}.}.]..XOX.X@Xv.7 o 4 +X+X+X,X+XXX+X:X:X:X;X,X,X,X:X",
"i.k.Q.!.P.P.~.*X:.l.j.z.Q.(.y   < b.>Xv.1.M.n.n.g.g.[.[.XXXXoX+X",
"s.l.^.Z.R V S.p I.W.G.&XY.3X_.w I.0X1XK.*X>Xk.5.j.c.r.r.q.F J G ",
"r.c.j.-.u.m.{ 2 N R p r G.7XwXqXtX6X+ d 3X_.2X4XI.5X5X=Xv.B.[.[.",
"d.p.h.N.B.v.h.i.2.<.y.c K.eXwXrX6X6 # y : u E J.a s $X%Xv.N.+X X",
"0.0.8.0.q.d.0.3.u.0.u.y.P.4XwXwXf o ) a.3.i.7...6.0.8.w. X[. XXX",
"~ ~ { { J e.e.4.6.6.0.7.Q U.`.A.X ; c.B.f.a.a.c.f.a.p.h.XX X|.+X",
"~ ( ) ! ( e.w.3.4.0.6.i.%.e 9 X . n N.u.s.p.s.a.p.p.p.p. X X[. X",
") C l n { p.e.3.5.6.6.0.a.S .   ; p.a.s.j.s.p.s.c.p.d.t. X|.{. X",
") A l C } q.e.o.3.-.+.5.u.' 5 5 m =.t.w.i.q.p.e.p.p.p.p.|.|.{.[.",
") C n ) ( 0.0.+.6.8.-.0.%.& >.:.@ u !.y.w.q.p.i.p.d.p.d.XX{.XXoX",
") Z Z ( ( 0.9.o.o.5.7.=.L.e - % y `.D.7.p.e.w.i.p.d.e.d.XX|.{.+X",
"( I S G ~ 9.9...o.8.2.:.H.h t F.).w & x.i.w.w.p.p.p.p.p.oXoXXXoX",
"8.9.0.0.9.q.8.o.o.8.P /.E.f H.h O t D.%.p.e.r.p.p.p.p.p.|.XXXXXX",
"w.s.c.c.c.e.9.o.+.6.7.S.W.T.8 o h 3Xd U h.r.r.w.i.e.i.p.|.{.N.{.",
"( { { } o.r.9.o.o.3.7.Q C.G.e B W.G.w U h.w.s.p.p.p.w.p.|.XX|.[.",
"C ! ~ ! A 9.0.o.o.o.X.@.V.i : S.G.i t ' t.w.u.w.p.e.p.p.{.|.{.N.",
"_ C b U ! 8.q.o.o.+.+.7.Q w 5 $.d 9 N j.w.9.0.i.i.p.w.p.|.{.[.|.",
"Y > % v ( 8.q.| o.+.@.7.#.f M ;.p q @.i.0.9.0.w.w.e.w.p.XX[.[.oX",
"! 3 3 Z ( -.0.| | o.+.2.#.F.W ;.Z.s 8.w.0.0.0.e.w.e.w.p.[.|.|.oX",
"_ U Z Y S 8.0.{ | o.o.*.%.E y ` P.Q o.w.0.0.0.0.w.e.e.p.[.{.{.|.",
"U C C U C -.9. .| ..| o.-.T y T Q ` *.0.0.0.e.0.w.w.q.i.|.[.N.XX",
"! ~ S ^ G 8.8. .| ..O.o.' O.S Y ' O.3.6.4.0.0.0.w.w.q.u.[.[.{.XX",
"3.4.r.q.q.9.-. ...| o.o.+.~ A O.} S o.w.8.0.0.0.w.0.0.p.N.{.XXXX",
"| o.-.-.8.8.*.{  .| | | -.| G -.( ( 3.0.8.0.0.0.e.0.e.p.{.{.|.XX"
};
